<?xml version="1.0" encoding="utf-8"?>
<!-- Generator: Adobe Illustrator 23.0.2, SVG Export Plug-In . SVG Version: 6.00 Build 0)  -->
<svg version="1.1" id="Layer_1" xmlns="http://www.w3.org/2000/svg" xmlns:xlink="http://www.w3.org/1999/xlink" x="0px" y="0px"
	 viewBox="0 0 500 500" style="enable-background:new 0 0 500 500;" xml:space="preserve">
<style type="text/css">
	.st0{fill:#FFF8F8;}
	.st1{fill:#3B364D;}
	.st2{fill:#FFE5E2;}
	.st3{fill:#AAB2C8;}
	.st4{fill:#E0E7FF;}
	.st5{fill:none;stroke:#AAB2C8;stroke-miterlimit:10;}
	.st6{opacity:0.54;fill:#FFFFFF;enable-background:new    ;}
	.st7{fill:#773C4D;}
	.st8{fill:#965363;}
	.st9{fill:#61648A;}
	.st10{fill:#EDF1FC;}
	.st11{fill:#FFC55A;}
	.st12{fill:#AF2F48;}
	.st13{fill:#F49947;}
	.st14{fill:#F27C49;}
	.st15{fill:#D35473;}
	.st16{fill:#31344C;}
	.st17{opacity:0.54;fill:#232433;enable-background:new    ;}
	.st18{fill:#383952;}
	.st19{fill:#6D3744;}
	.st20{fill:#542633;}
	.st21{opacity:0.36;fill:#383952;enable-background:new    ;}
	.st22{fill:#F4B8AB;}
	.st23{fill:#C3C9F4;}
	.st24{fill:none;stroke:#191918;stroke-width:2;stroke-miterlimit:10;}
	.st25{fill:none;stroke:#E56A85;stroke-linecap:round;stroke-miterlimit:10;}
	.st26{opacity:0.53;fill:#DD6595;enable-background:new    ;}
	.st27{fill:#7C9E1E;}
	.st28{fill:#B7AC15;}
	.st29{fill:#A88F14;}
	.st30{fill:#426313;}
	.st31{opacity:0.36;fill:#426313;enable-background:new    ;}
	.st32{fill:#3A3852;}
</style>
<title>4882405</title>
<g id="BACKGROUND">
</g>
<g id="OBJECTS">
	<path class="st0" d="M430.3,421.6c53.2-54.4,30.2-138.9-73-158.2S231.9,128.7,138.1,152.8S8.7,354.1,105,421.6H430.3z"/>
	<rect x="423.7" y="243.3" class="st1" width="6.6" height="164.3"/>
	<path class="st2" d="M182.8,421.6c0,2.4-20.9,4.3-46.6,4.3s-46.6-1.9-46.6-4.3s20.9-4.3,46.6-4.3S182.8,419.2,182.8,421.6z"/>
	<ellipse class="st2" cx="309" cy="426.2" rx="90.6" ry="8.9"/>
	<path class="st3" d="M61.5,123.2h126.4c5.9,0,10.8,4.8,10.8,10.8v109.6c0,5.9-4.8,10.8-10.8,10.8H61.5c-5.9,0-10.8-4.8-10.8-10.8
		V133.9C50.8,128,55.6,123.2,61.5,123.2z"/>
	<rect x="60.8" y="134" class="st4" width="127.8" height="109.4"/>
	<line class="st5" x1="124.7" y1="134" x2="124.7" y2="243.4"/>
	<line class="st5" x1="188.6" y1="188.7" x2="60.8" y2="188.7"/>
	<polygon class="st6" points="116.7,134 73.8,243.4 92.8,243.4 136.1,134 	"/>
	<polygon class="st6" points="149.9,134 107,243.4 125.9,243.4 169.3,134 	"/>
	<rect x="328.8" y="237.5" class="st7" width="125.9" height="11.7"/>
	<rect x="374.4" y="237.5" class="st8" width="80.3" height="11.7"/>
	<path class="st9" d="M356.1,218.6h64.2l0,0v18.9l0,0h-64.2c-2.2,0-4-1.8-4-4v-10.8C352,220.5,353.8,218.6,356.1,218.6
		C356,218.6,356.1,218.6,356.1,218.6z"/>
	<rect x="357" y="222.6" class="st10" width="64.4" height="10.9"/>
	<rect x="356.8" y="222.6" class="st4" width="46" height="10.9"/>
	<path class="st11" d="M345.5,199.8h64.2l0,0v18.9l0,0h-64.2c-2.2,0-4-1.8-4-4v-10.8C341.5,201.6,343.3,199.8,345.5,199.8
		C345.5,199.8,345.5,199.8,345.5,199.8z"/>
	<rect x="346.3" y="203.7" class="st10" width="64.4" height="10.9"/>
	<rect x="346.3" y="203.7" class="st4" width="46.3" height="10.9"/>
	<path class="st12" d="M360.1,180.9h64.2l0,0v18.9l0,0h-64.2c-2.2,0-4-1.8-4-4v-10.8C356.1,182.7,357.8,180.9,360.1,180.9
		C360.1,180.9,360.1,180.9,360.1,180.9z"/>
	<rect x="361.1" y="184.9" class="st10" width="64.4" height="10.9"/>
	<rect x="360.8" y="184.9" class="st4" width="43.4" height="10.9"/>
	<path class="st11" d="M352.8,334.6c0.1,14-1.2,27.4-4.9,39.4l0,0c-10.2,33.7-38.4,57-104.5,54.8c-89.7-2.9-106-86.3-113.5-164.3
		c-6.1-63.3,12.9-109.8,70-125.1c13.3-3.6,28.6-5.4,46.2-5.4C326.8,134,352.5,281.3,352.8,334.6z"/>
	<path class="st13" d="M347.9,374.1c-10.2,33.7-38.4,56.9-104.5,54.8c-89.7-2.9-106-86.3-113.5-164.3c-6.1-63.3,12.9-109.8,70-125.1
		c-49,29.9-61.2,84.3-41.2,167.1s70.6,106.9,103.3,107S335.9,402.9,347.9,374.1z"/>
	<path class="st13" d="M223.4,212.2c-64,11.4-36.1,102.7-21.9,128.3s20.2,55.9,52.8,57.2s74.4-13.5,78.4-24.2s-14.5-66.9-14.5-66.9
		s-2.5-56.8-20.3-71.7S244.6,208.4,223.4,212.2z"/>
	<path class="st14" d="M309,366.3c-11.7,21.8-51.5,29.5-65.1,26.1c-8-2-17.7-9.3-26.4-19.8c-5.6-9.9-10.1-21.3-16-32
		c-2.8-5.2-5.2-10.7-7.2-16.3c-4.9-23.5-4.7-51.3,4.4-60.8c12.4-12.9,24.5-21.9,25.4-29.9c0.7-6.3-6.4-14.5-5-20.4
		c1.4-0.4,2.9-0.7,4.4-0.9c17.5-3.1,44.8,4.1,63.8,15.1c1.8,6.9,2,16.2,6.3,19.2c6.6,4.6,16.8,33.5,19.4,47S309,366.3,309,366.3z"/>
	<path class="st12" d="M395.9,400.9c0.5,8.2,24.3-2.3,27.4-6.8c0,0-13,37.4-19.8,37.4S378.3,412,378.3,412l2.2-11.1L395.9,400.9z"/>
	<path class="st15" d="M403.5,431.5c-7.4,3.2,11.1-43.4,19.8-42.3S413.1,427.4,403.5,431.5z"/>
	<path class="st16" d="M398.7,347c-0.5,24-6.7,53.9-6.7,53.9h-15.4c0,0-9.5-20.3-13.9-40.7c-1.1-5-1.8-10-2.2-15.1
		c0,0-23.9,7.2-47,2.9c-10.1-2-20.1-4.6-29.9-7.8c-13.2-4.1-23.6-8.1-23.6-8.1l0.8-1l16.8-21.3L323,303l5.3-0.8l32.2,10
		C389.1,315.3,399.2,323,398.7,347z"/>
	<path class="st17" d="M362.7,360.2c-1.1-5-1.8-10-2.2-15.1c0,0-23.9,7.2-47,2.9c-10.1-2-20.1-4.6-29.9-7.8l-22.8-9.1l-2-0.8
		l-3.8-15.8l48.7-17L323,303l32.2,9.2c-7.8,14,7.9,30.5,11.3,35.5s13.2-3.1,19.4,0S367.6,349.3,362.7,360.2z"/>
	<path class="st12" d="M371.8,414.4c7.1,15.4,17.6,22.7,23.2,20.3l-2.5-25.5l-10.1-4.4L371.8,414.4z"/>
	<path class="st15" d="M395,434.6c-12.5,2.1-10.1-22-9.5-33.8s10.5-10.7,11.5-1.6S403.4,433.3,395,434.6z"/>
	<path class="st18" d="M382.4,404.8l-10.6,9.6c-43.3-12.5-68.8-51.9-68.8-51.9c-24,27.9-51,34.1-72.7,0c0,0,1.4-15.2,18.9-26.9
		c3.8-2.5,7.9-4.6,12.2-6.3c18.8-7.4,43.8-8.9,59.2-9c9.3,0,18,4.5,23.3,12.1c9.1,12.8,17.7,28.7,24.5,42.3
		C376.9,391.4,382.4,404.8,382.4,404.8z"/>
	<path class="st17" d="M382.4,404.8l-10.6,9.6c-43.3-12.5-68.8-51.9-68.8-51.9c-24,27.9-51,34.1-72.7,0c0,0,1.4-15.2,18.9-26.9
		l18.1-3.4c-21.2,41.6,29.7,31.9,38.9,24.3s17.9-15.2,22-15.6s-17.5,15.6-2.3,33.8s50.5,29.6,42.5,0
		C376.9,391.4,382.4,404.8,382.4,404.8z"/>
	<path class="st19" d="M276.9,197.6h-0.6c0,0-6.4,24.6-17.4,33.7c-1.8,1.6-4,2.7-6.4,3.2c-14.8,2.7-27.6-14.1-30-25.6
		c-1.4-6.4,1-10.4,3.4-12.6c1.1-1,2.3-1.9,3.7-2.5c0,0,1-18.2,7.3-17.9c6.1,0.3,5.1,2.7,5,2.9c0.4-0.5,13.6-18.1,22.8-16.2
		c9.1,1.9,2.8,15.6,2.8,15.6s11.7-11.9,15.6-5s-7.6,15.1-7.6,15.1s9.9-0.1,10.9,3.4S285.8,198.7,276.9,197.6z"/>
	<path class="st20" d="M258.9,231.3c-1.8,1.6-4,2.7-6.4,3.2c-14.8,2.7-27.6-14.1-30-25.6c-1.4-6.4,1-10.4,3.4-12.6
		c2.2,2.9,5.1,8.6,11.8,1.3h3.1L258.9,231.3z"/>
	<path class="st9" d="M298,304.4l-67.4,62.5c-3.1-2.8-6-5.9-8.6-9.2l0,0c-4.4-5.7-7.8-12-10.2-18.8c-1.7-4.9-3-10-3.8-15.2
		c-1.8-11.8-1.6-24.2-0.8-36.5c1.8-28.8,10.4-48,45-48.5c0,0,15.8-4.4,27.6,1.9c9.2,5,15.2,41.6,17.4,57.1
		C297.8,301.7,298,304.4,298,304.4z"/>
	<path class="st21" d="M283.7,275.9c-35.5,13.3-50.1-12.5-50.1-12.5l-11.5,41.2l24.5,7.6l42.7-4.5L283.7,275.9z"/>
	<path class="st21" d="M298,304.4l-67.4,62.5c-3.1-2.8-6-5.9-8.6-9.2c11.7-0.9,36.9-28.9,30.3-30.4c-5.9-1.3-26.3,12.6-40.5,11.6
		c-1.7-4.9-3-10-3.8-15.2l21.6-18.9l67.4-7.1C297.8,301.7,298,304.4,298,304.4z"/>
	<path class="st22" d="M260.1,296c7.9-5.4,17.1-0.9,20.4,1.5s0,8.6,0,8.6c-1.5-0.9-3.1-1.7-4.8-2.4c-1.2-0.3-6.9,4.2-18.3,2.4
		S260.1,296,260.1,296z"/>
	<path class="st9" d="M213.8,258.7c15.5-11.6,24.3-1.4,23.6,18.6l-0.8,20c0,0,19.8-6.3,24.6-6.3c0,0,0.4,13.7,0,18.6
		c0,0-23.9,23.2-39.7,24.9s-12.6-29.5-14-43.9S208.4,262.8,213.8,258.7z"/>
	<path class="st23" d="M277.7,307.1l11.8-47.7c1.2-4.9,5.6-8.3,10.6-8.3h67.6c3.8,0,6.8,3.1,6.8,6.8c0,0.6-0.1,1.1-0.2,1.7
		l-13.6,49.9L277.7,307.1z"/>
	<path class="st4" d="M282.5,307.1l11.8-47.7c1.2-4.9,5.6-8.3,10.6-8.3h67.6c3.8,0,6.8,3.1,6.8,6.8c0,0.6-0.1,1.1-0.2,1.7
		l-13.6,49.9L282.5,307.1z"/>
	<path class="st23" d="M345.8,311.8h-85.9c-1.3,0-2.4-1.1-2.4-2.4l0,0l0,0c0-1.3,1.1-2.4,2.4-2.4h85.9c1.3,0,2.4,1.1,2.4,2.4
		c0,0,0,0,0,0l0,0C348.2,310.8,347.1,311.8,345.8,311.8C345.8,311.8,345.8,311.8,345.8,311.8z"/>
	<path class="st4" d="M366,311.8h-85.9c-1.3,0-2.4-1.1-2.4-2.4l0,0l0,0c0-1.3,1.1-2.4,2.4-2.4H366c1.3,0,2.4,1.1,2.4,2.4
		c0,0,0,0,0,0l0,0C368.4,310.8,367.3,311.8,366,311.8C366,311.8,366,311.8,366,311.8z"/>
	<path class="st23" d="M337.3,280.1c-1.1,6.2-4,10.9-6.3,10.5s-3.3-5.8-2.2-12s4-10.9,6.3-10.5S338.4,274,337.3,280.1z"/>
	<path class="st22" d="M280.7,201.6c1.5,22-2,31.7-14.5,32.9v5.1c0,3.8-3.1,6.9-6.9,6.9l0,0c-3.8,0-6.9-3.1-6.9-6.9l0,0v-5.1
		c0,0-10-4.2-12-10.5s0-1,0-1l-0.9-25.4H281L280.7,201.6z"/>
	<path class="st22" d="M241.2,213.5c-3.1-5.7-6.8-3.3-7.6,0s5.9,11.4,7.6,8.6S241.2,213.5,241.2,213.5z"/>
	<path class="st19" d="M234.3,194.8c6.7,8.1,25.6,12.3,32.5,10.4s-2.9-8.3-2.9-8.3s12.7,8.8,18.5,5.8s-9.9-10.1-9.9-10.1
		L234.3,194.8z"/>
	<path class="st24" d="M257,212.2c0,1.2-0.2,2.1-0.5,2.1s-0.5-0.9-0.5-2.1s0.2-2.1,0.5-2.1S257,211,257,212.2z"/>
	<path class="st24" d="M270.5,212.2c0,1.2-0.2,2.1-0.5,2.1s-0.5-0.9-0.5-2.1s0.2-2.1,0.5-2.1S270.5,211,270.5,212.2z"/>
	<path class="st25" d="M265,224c-6.5,0.1-11.5-4.5-11.5-4.5"/>
	<path class="st26" d="M266.2,234.5c-4,0.3-8,0.4-11.9,0.3l11.9,4.8V234.5z"/>
	<path class="st26" d="M240.8,215c-2.8-2.9-4.2-1.7-4,1.3s3.9,5.2,5.1,4.4S240.8,215,240.8,215z"/>
	<path class="st27" d="M131.4,367.9c-12.4-4.6-19.3-2.8-23.1-7.9c0,0,10.1-1.8,15.7,0L131.4,367.9z"/>
	<path class="st28" d="M124.1,360.1c-15.1-7.9-19.6-16.8-23.4-23s-6-11.3-7.4-11.7s6.2,1.1,13.4,8.3s10.2,8.3,16,14.1
		s10.9,14.2,11.5,20.2h-2.7L124.1,360.1z"/>
	<path class="st27" d="M128.4,358c-8.2-12.5-0.8-19.7-10.7-33.9c-11.5-16.6-7.9-33.2-6.2-43.6c0,0-2.6,12.1,7.4,24
		s19.8,16.4,20.7,34s-2.6,29.5-2.6,29.5h-5.7L128.4,358z"/>
	<path class="st28" d="M135.8,367.9c-2.7-11.7,2.6-31.7,3-51.5s-10.6-34.5,5.7-53c0,0-3.4,3.4,1.3,17s15.1,27.9,10,46.2
		s-16.1,33.3-16,41.3L135.8,367.9z"/>
	<path class="st29" d="M139.8,367.9c-1.7-14.1,12.6-36,24.8-40.9c0.5,7.1-1.9,14.2-6.6,19.5c-7.9,8.8-13.7,21.3-13.7,21.3
		L139.8,367.9z"/>
	<path class="st30" d="M144.2,367.9c0.5-9.3,8.6-12.6,16.9-15c0,0-10,10.1-11.7,15H144.2z"/>
	<path class="st31" d="M148.1,369c1.4-7.1,4.6-9.3,4-9.7s-4.2,5.5-6,8.6c0,0-2.4-8.1,1.2-15s7.1-12.2,7.1-12.2s-11.7,13.5-12.3,20.4
		c-0.7-5.3-0.4-10.6,0.8-15.8c2-8.9,7.3-17.4,5.4-27.9s-4-21.7-4-21.7s0.9,10.7,1.9,19.9s-1.7,14.1-4.4,24s-1.2,24-2.3,23.9
		s-3,2.5-3,2.5s-1.2-15.2-3-28.1s-1.6-14.7-9.5-22.4s-8.9-12.4-8.9-12.4s5.3,10.6,9.7,17.5c4.4,6.9,5.8,9.9,5.8,22s0.6,19,1.6,20.9
		s-7.5-11.5-14.2-16.1c-4.8-3.3-9.1-7.3-12.7-11.9c-0.6-1,6.5,11.7,11.7,15.2s14.4,15.2,14.4,15.2l-15-4l17,7.1L148.1,369z"/>
	<path class="st32" d="M161.5,371.7l-8,46c-0.4,2.2-2.3,3.9-4.6,3.9h-28.7c-2.3,0-4.2-1.6-4.6-3.9l-7.5-46c-0.4-2.5,1.3-4.9,3.8-5.3
		c0.3,0,0.5-0.1,0.8-0.1H157c2.6,0,4.6,2.1,4.6,4.7C161.6,371.2,161.6,371.5,161.5,371.7z"/>
	<path class="st17" d="M153,419.3c-0.8,1.4-2.4,2.3-4,2.3h-28.8c-2.3,0-4.2-1.6-4.6-3.9l-7.5-46c-0.4-2.5,1.3-4.9,3.8-5.3
		c0.3,0,0.5-0.1,0.8-0.1h15.2C113.8,388.2,137.4,413.6,153,419.3z"/>
	<path class="st11" d="M201.5,340.5c5.9,10.7,10.4,22.2,16,32c-6.6-7.9-12-16.6-16.3-25.9c-3.1-7.2-5.4-14.7-6.9-22.4
		C196.3,329.8,198.7,335.2,201.5,340.5z"/>
</g>
</svg>
